# xmcd
#
# Track frame offsets: 
#        150
#        17397
#        33470
#        59637
#        75292
#        87307
#        104050
#        127540
#        147155
#        162943
#
# Disc length: 2206 seconds
#
# Revision: 0
# Processed by: cddbd v1.5.2PL0 Copyright (c) Steve Scherf et al.
# Submitted via: ExactAudioCopy v1.3
#
DISCID=74089c0a
DTITLE=Bobby Mack and Night Train - Say What!
DYEAR=1990
DGENRE=Blues Rock
TTITLE0=By The Minute
TTITLE1=Change It
TTITLE2=She's So Fine
TTITLE3=Treat Her Like A Lady
TTITLE4=Take It Home
TTITLE5=Before You Accuse Me
TTITLE6=Change My Mind
TTITLE7=Give It Up
TTITLE8=Piece Of My Heart
TTITLE9=42nd Street
EXTD=
EXTT0=
EXTT1=
EXTT2=
EXTT3=
EXTT4=
EXTT5=
EXTT6=
EXTT7=
EXTT8=
EXTT9=
PLAYORDER=
